<svg width="25" height="25" viewBox="0 0 25 25" fill="none" xmlns="http://www.w3.org/2000/svg">
<path fill-rule="evenodd" clip-rule="evenodd" d="M3.39249 6.23566C3.39249 5.44001 3.70856 4.67695 4.27117 4.11434C4.83378 3.55173 5.59684 3.23566 6.39249 3.23566H18.3925C19.1881 3.23566 19.9512 3.55173 20.5138 4.11434C21.0764 4.67695 21.3925 5.44001 21.3925 6.23566V18.2357C21.3925 19.0313 21.0764 19.7944 20.5138 20.357C19.9512 20.9196 19.1881 21.2357 18.3925 21.2357H6.39249C5.59684 21.2357 4.83378 20.9196 4.27117 20.357C3.70856 19.7944 3.39249 19.0313 3.39249 18.2357V6.23566ZM13.3925 8.23566C13.3925 7.97044 13.2871 7.71609 13.0996 7.52855C12.9121 7.34101 12.6577 7.23566 12.3925 7.23566C12.1273 7.23566 11.8729 7.34101 11.6854 7.52855C11.4978 7.71609 11.3925 7.97044 11.3925 8.23566V16.2357C11.3925 16.5009 11.4978 16.7552 11.6854 16.9428C11.8729 17.1303 12.1273 17.2357 12.3925 17.2357C12.6577 17.2357 12.9121 17.1303 13.0996 16.9428C13.2871 16.7552 13.3925 16.5009 13.3925 16.2357V8.23566ZM9.39249 11.2357C9.39249 10.9704 9.28713 10.7161 9.09959 10.5286C8.91206 10.341 8.6577 10.2357 8.39249 10.2357C8.12727 10.2357 7.87292 10.341 7.68538 10.5286C7.49784 10.7161 7.39249 10.9704 7.39249 11.2357V16.2357C7.39249 16.5009 7.49784 16.7552 7.68538 16.9428C7.87292 17.1303 8.12727 17.2357 8.39249 17.2357C8.6577 17.2357 8.91206 17.1303 9.09959 16.9428C9.28713 16.7552 9.39249 16.5009 9.39249 16.2357V11.2357ZM17.3925 14.2357C17.3925 13.9704 17.2871 13.7161 17.0996 13.5286C16.9121 13.341 16.6577 13.2357 16.3925 13.2357C16.1273 13.2357 15.8729 13.341 15.6854 13.5286C15.4978 13.7161 15.3925 13.9704 15.3925 14.2357V16.2357C15.3925 16.5009 15.4978 16.7552 15.6854 16.9428C15.8729 17.1303 16.1273 17.2357 16.3925 17.2357C16.6577 17.2357 16.9121 17.1303 17.0996 16.9428C17.2871 16.7552 17.3925 16.5009 17.3925 16.2357V14.2357Z" fill="#99B2C6"/>
</svg>
