<svg width="17" height="16" viewBox="0 0 17 16" fill="none" xmlns="http://www.w3.org/2000/svg">
<g clip-path="url(#clip0_1_311)">
<path d="M8.64865 1.48192C12.2453 1.48192 15.1425 4.25233 15.1425 7.69146C15.1425 11.1306 12.2453 13.901 8.64865 13.901C5.05204 13.901 2.15476 11.1306 2.15476 7.69146C2.15476 4.25233 5.05204 1.48192 8.64865 1.48192ZM8.64865 0.0489502C4.25279 0.0489502 0.656174 3.48808 0.656174 7.69146C0.656174 11.8948 4.25279 15.334 8.64865 15.334C13.0445 15.334 16.6411 11.8948 16.6411 7.69146C16.6411 3.48808 13.0445 0.0489502 8.64865 0.0489502Z" fill="#99B2C6"/>
<path d="M10.5469 9.88872C10.0473 10.2708 9.34799 10.5574 8.64865 10.5574C6.95025 10.5574 5.65147 9.31553 5.65147 7.69149C5.65147 6.06746 6.95025 4.82555 8.64865 4.82555C9.4479 4.82555 10.2471 5.11214 10.7467 5.68533L11.8456 4.63449C11.0464 3.87024 9.84752 3.39258 8.64865 3.39258C6.151 3.39258 4.15288 5.30321 4.15288 7.69149C4.15288 10.0798 6.151 11.9904 8.64865 11.9904C9.74761 11.9904 10.6468 11.6083 11.446 11.0351L10.5469 9.88872Z" fill="#99B2C6"/>
</g>
<defs>
<clipPath id="clip0_1_311">
<rect width="15.985" height="15.285" fill="white" transform="translate(0.656174 0.0489502)"/>
</clipPath>
</defs>
</svg>
