<svg width="26" height="26" viewBox="0 0 26 26" fill="none" xmlns="http://www.w3.org/2000/svg">
<path d="M8.82904 12.664C9.90648 12.664 10.9398 12.236 11.7017 11.4741C12.4635 10.7123 12.8915 9.67894 12.8915 8.6015C12.8915 7.52406 12.4635 6.49075 11.7017 5.72888C10.9398 4.96701 9.90648 4.539 8.82904 4.539C7.7516 4.539 6.71829 4.96701 5.95642 5.72888C5.19455 6.49075 4.76654 7.52406 4.76654 8.6015C4.76654 9.67894 5.19455 10.7123 5.95642 11.4741C6.71829 12.236 7.7516 12.664 8.82904 12.664ZM15.9378 19.0953C16.6003 19.3665 17.4428 19.539 18.5153 19.539C23.5153 19.539 23.5153 15.789 23.5153 15.789C23.5153 15.2919 23.3179 14.8152 22.9666 14.4636C22.6152 14.112 22.1386 13.9143 21.6415 13.914H15.8565C16.3478 14.509 16.6428 15.2703 16.6428 16.1015V16.5465C16.6402 16.6518 16.6331 16.7569 16.6215 16.8615C16.5372 17.6425 16.3044 18.4005 15.9378 19.0953ZM21.6415 9.539C21.6415 10.3678 21.3123 11.1627 20.7262 11.7487C20.1402 12.3348 19.3453 12.664 18.5165 12.664C17.6877 12.664 16.8929 12.3348 16.3068 11.7487C15.7208 11.1627 15.3915 10.3678 15.3915 9.539C15.3915 8.7102 15.7208 7.91534 16.3068 7.32929C16.8929 6.74324 17.6877 6.414 18.5165 6.414C19.3453 6.414 20.1402 6.74324 20.7262 7.32929C21.3123 7.91534 21.6415 8.7102 21.6415 9.539ZM2.26654 16.414C2.26654 15.751 2.52993 15.1151 2.99877 14.6462C3.46761 14.1774 4.1035 13.914 4.76654 13.914H12.8915C13.5546 13.914 14.1905 14.1774 14.6593 14.6462C15.1281 15.1151 15.3915 15.751 15.3915 16.414C15.3915 16.414 15.3915 21.414 8.82904 21.414C2.26654 21.414 2.26654 16.414 2.26654 16.414ZM16.6415 16.5465L16.6378 16.6265L16.6403 16.5465H16.6415Z" fill="#99B2C6"/>
</svg>
