<svg width="23" height="23" viewBox="0 0 23 23" fill="none" xmlns="http://www.w3.org/2000/svg">
<path d="M11.1821 17.0603C9.59083 17.0603 8.06471 16.4282 6.93949 15.3029C5.81427 14.1777 5.18213 12.6516 5.18213 11.0603C5.18213 9.469 5.81427 7.94288 6.93949 6.81766C8.06471 5.69244 9.59083 5.0603 11.1821 5.0603C12.7734 5.0603 14.2996 5.69244 15.4248 6.81766C16.55 7.94288 17.1821 9.469 17.1821 11.0603C17.1821 12.6516 16.55 14.1777 15.4248 15.3029C14.2996 16.4282 12.7734 17.0603 11.1821 17.0603ZM10.1821 0.0603027H12.1821V3.0603H10.1821V0.0603027ZM10.1821 19.0603H12.1821V22.0603H10.1821V19.0603ZM2.69713 3.9893L4.11113 2.5753L6.23213 4.6963L4.81813 6.1103L2.69713 3.9893ZM16.1321 17.4243L17.5461 16.0103L19.6671 18.1313L18.2531 19.5453L16.1321 17.4243ZM18.2531 2.5743L19.6671 3.9893L17.5461 6.1103L16.1321 4.6963L18.2531 2.5753V2.5743ZM4.81813 16.0103L6.23213 17.4243L4.11113 19.5453L2.69713 18.1313L4.81813 16.0103ZM22.1821 10.0603V12.0603H19.1821V10.0603H22.1821ZM3.18213 10.0603V12.0603H0.182129V10.0603H3.18213Z" fill="black"/>
</svg>
