<svg width="25" height="25" viewBox="0 0 25 25" fill="#99B2C6" xmlns="http://www.w3.org/2000/svg">
<path d="M9.37985 21.094H5.37985C4.27985 21.094 3.37985 20.194 3.37985 19.094V5.09399C3.37985 3.99399 4.27985 3.09399 5.37985 3.09399H9.37985C10.4799 3.09399 11.3799 3.99399 11.3799 5.09399V19.094C11.3799 20.194 10.4799 21.094 9.37985 21.094ZM15.3799 21.094H19.3799C20.4799 21.094 21.3799 20.194 21.3799 19.094V14.094C21.3799 12.994 20.4799 12.094 19.3799 12.094H15.3799C14.2799 12.094 13.3799 12.994 13.3799 14.094V19.094C13.3799 20.194 14.2799 21.094 15.3799 21.094ZM21.3799 8.09399V5.09399C21.3799 3.99399 20.4799 3.09399 19.3799 3.09399H15.3799C14.2799 3.09399 13.3799 3.99399 13.3799 5.09399V8.09399C13.3799 9.19399 14.2799 10.094 15.3799 10.094H19.3799C20.4799 10.094 21.3799 9.19399 21.3799 8.09399Z" fill="#99B2C6"/>
</svg>
