<svg width="19" height="19" viewBox="0 0 19 19" fill="none" xmlns="http://www.w3.org/2000/svg">
<path d="M5.39569 12.6368C5.56219 14.5122 7.09782 15.8431 9.43557 16.0152V17.3832H10.6089V16.0152C13.1627 15.8138 14.7467 14.3975 14.7467 12.3027C14.7467 10.514 13.6813 9.47896 11.4212 8.89621L10.6089 8.68583V4.40858C11.8712 4.53233 12.7228 5.21183 12.9377 6.22658H14.5914C14.4047 4.42658 12.8589 3.13508 10.6089 2.99221V1.63321H9.43557V3.02033C7.25419 3.27908 5.75682 4.67633 5.75682 6.57083C5.75682 8.20658 6.84357 9.36421 8.75044 9.85246L9.43669 10.0347V14.5696C8.14407 14.3783 7.25419 13.6696 7.03932 12.6368H5.39569ZM9.21057 8.32133C8.03719 8.02546 7.41057 7.39321 7.41057 6.50333C7.41057 5.44133 8.20257 4.65721 9.43557 4.44683V8.37871L9.21057 8.32133ZM11.0004 10.4273C12.4483 10.7907 13.0839 11.3937 13.0839 12.4175C13.0839 13.6516 12.1547 14.474 10.6089 14.5988V10.3295L11.0004 10.4262V10.4273Z" fill="white"/>
</svg>
