<svg width="23" height="23" viewBox="0 0 23 23" fill="none" xmlns="http://www.w3.org/2000/svg">
<path d="M11.7316 4.31918C7.14832 4.31918 3.23415 7.17002 1.64832 11.1942C3.23415 15.2183 7.14832 18.0692 11.7316 18.0692C16.315 18.0692 20.2291 15.2183 21.815 11.1942C20.2291 7.17002 16.315 4.31918 11.7316 4.31918ZM11.7316 15.7775C9.20165 15.7775 7.14832 13.7242 7.14832 11.1942C7.14832 8.66418 9.20165 6.61085 11.7316 6.61085C14.2616 6.61085 16.315 8.66418 16.315 11.1942C16.315 13.7242 14.2616 15.7775 11.7316 15.7775ZM11.7316 8.44418C10.21 8.44418 8.98165 9.67252 8.98165 11.1942C8.98165 12.7158 10.21 13.9442 11.7316 13.9442C13.2533 13.9442 14.4816 12.7158 14.4816 11.1942C14.4816 9.67252 13.2533 8.44418 11.7316 8.44418Z" fill="white"/>
</svg>
