<svg width="25" height="25" viewBox="0 0 25 25" fill="none" xmlns="http://www.w3.org/2000/svg">
<path d="M10.3911 16.8091V8.80908C10.3911 8.27865 10.6018 7.76994 10.9769 7.39487C11.3519 7.0198 11.8606 6.80908 12.3911 6.80908H21.3911V5.80908C21.3911 4.70908 20.4911 3.80908 19.3911 3.80908H5.39107C4.86063 3.80908 4.35193 4.0198 3.97685 4.39487C3.60178 4.76994 3.39107 5.27865 3.39107 5.80908V19.8091C3.39107 20.3395 3.60178 20.8482 3.97685 21.2233C4.35193 21.5984 4.86063 21.8091 5.39107 21.8091H19.3911C20.4911 21.8091 21.3911 20.9091 21.3911 19.8091V18.8091H12.3911C11.8606 18.8091 11.3519 18.5984 10.9769 18.2233C10.6018 17.8482 10.3911 17.3395 10.3911 16.8091ZM13.3911 8.80908C12.8411 8.80908 12.3911 9.25908 12.3911 9.80908V15.8091C12.3911 16.3591 12.8411 16.8091 13.3911 16.8091H22.3911V8.80908H13.3911ZM16.3911 14.3091C15.5611 14.3091 14.8911 13.6391 14.8911 12.8091C14.8911 11.9791 15.5611 11.3091 16.3911 11.3091C17.2211 11.3091 17.8911 11.9791 17.8911 12.8091C17.8911 13.6391 17.2211 14.3091 16.3911 14.3091Z" fill="#99B2C6"/>
</svg>
