<svg width="26" height="22" viewBox="0 0 26 22" fill="none" xmlns="http://www.w3.org/2000/svg">
<path d="M22.3761 3.47455H5.18864C4.77424 3.47455 4.37682 3.63917 4.08379 3.93219C3.79076 4.22522 3.62614 4.62265 3.62614 5.03705V19.0995C3.62614 19.5139 3.79076 19.9114 4.08379 20.2044C4.37682 20.4974 4.77424 20.662 5.18864 20.662H22.3761C22.7905 20.662 23.188 20.4974 23.481 20.2044C23.774 19.9114 23.9386 19.5139 23.9386 19.0995V5.03705C23.9386 4.62265 23.774 4.22522 23.481 3.93219C23.188 3.63917 22.7905 3.47455 22.3761 3.47455ZM13.7824 12.8495C12.5392 12.8495 11.3469 12.3557 10.4678 11.4766C9.58875 10.5975 9.09489 9.40525 9.09489 8.16205C9.09489 7.95485 9.1772 7.75613 9.32372 7.60962C9.47023 7.46311 9.66894 7.3808 9.87614 7.3808C10.0833 7.3808 10.2821 7.46311 10.4286 7.60962C10.5751 7.75613 10.6574 7.95485 10.6574 8.16205C10.6574 8.99085 10.9866 9.78571 11.5727 10.3718C12.1587 10.9578 12.9536 11.287 13.7824 11.287C14.6112 11.287 15.4061 10.9578 15.9921 10.3718C16.5782 9.78571 16.9074 8.99085 16.9074 8.16205C16.9074 7.95485 16.9897 7.75613 17.1362 7.60962C17.2827 7.46311 17.4814 7.3808 17.6886 7.3808C17.8958 7.3808 18.0946 7.46311 18.2411 7.60962C18.3876 7.75613 18.4699 7.95485 18.4699 8.16205C18.4699 9.40525 17.976 10.5975 17.097 11.4766C16.2179 12.3557 15.0256 12.8495 13.7824 12.8495Z" fill="#99B2C6"/>
</svg>
