<svg width="29" height="29" viewBox="0 0 29 29" fill="none" xmlns="http://www.w3.org/2000/svg">
<path d="M14.378 11.4968C15.4919 11.4968 16.5602 11.0543 17.3478 10.2666C18.1355 9.47895 18.578 8.41067 18.578 7.29676C18.578 6.18285 18.1355 5.11456 17.3478 4.32691C16.5602 3.53925 15.4919 3.09676 14.378 3.09676C13.2641 3.09676 12.1958 3.53925 11.4081 4.32691C10.6205 5.11456 10.178 6.18285 10.178 7.29676C10.178 8.41067 10.6205 9.47895 11.4081 10.2666C12.1958 11.0543 13.2641 11.4968 14.378 11.4968ZM5.22897 20.587C5.099 20.9343 5.08466 21.3144 5.18809 21.6706C5.29151 22.0267 5.50717 22.34 5.80297 22.5638C8.25484 24.4692 11.2727 25.5015 14.378 25.4968C17.612 25.4968 20.5912 24.3992 22.9614 22.5568C23.5634 22.0906 23.807 21.2926 23.5326 20.5828C22.8217 18.732 21.5664 17.1403 19.9322 16.0177C18.2981 14.8951 16.3619 14.2944 14.3793 14.2948C12.3967 14.2953 10.4609 14.8969 8.82724 16.0202C7.19361 17.1436 5.93899 18.7359 5.22897 20.587Z" fill="#99B2C6"/>
</svg>
