<svg width="21" height="20" viewBox="0 0 21 20" fill="none" xmlns="http://www.w3.org/2000/svg">
<path fill-rule="evenodd" clip-rule="evenodd" d="M20.6217 19.3737C20.4678 19.732 20.1964 19.8627 19.8088 19.8527C19.0534 19.8339 18.2976 19.8476 17.5419 19.8469C17.0841 19.8463 16.8335 19.5975 16.8335 19.1413C16.8328 15.9022 16.8328 12.6624 16.8335 9.4223C16.8335 8.96561 17.0825 8.71857 17.5422 8.71766C18.298 8.71713 19.0538 8.73097 19.8092 8.71198C20.197 8.70204 20.4682 8.83267 20.6219 9.19103C20.6217 12.5857 20.6217 15.9798 20.6217 19.3735L20.6217 19.3737Z" fill="#99B2C6"/>
<path fill-rule="evenodd" clip-rule="evenodd" d="M20.6219 5.44164C20.5308 5.56713 20.4623 5.72314 20.3437 5.81242C19.9566 6.10404 19.4172 5.84277 19.3601 5.34937C19.2911 4.7555 19.225 4.16109 19.1166 3.53151C19.1013 3.56417 19.0896 3.59914 19.0703 3.62931C16.9633 6.91002 14.1012 9.34351 10.6553 11.121C8.76144 12.0981 6.78973 12.8639 4.70116 13.3112C3.60553 13.5461 2.4994 13.6914 1.37678 13.682C1.21952 13.6804 1.05978 13.6733 0.905548 13.6446C0.64606 13.5966 0.511166 13.4041 0.41478 13.1774V12.8618C0.586769 12.4909 0.872697 12.3908 1.27632 12.4053C2.3789 12.444 3.4683 12.2955 4.53858 12.0392C8.96554 10.9796 12.8254 8.91072 15.9652 5.57571C16.7651 4.72644 17.4673 3.79956 18.0858 2.80953C18.1234 2.74901 18.1573 2.68564 18.209 2.59494C18.1346 2.60896 18.0869 2.61447 18.0406 2.6276C17.3838 2.81414 16.7289 3.00725 16.0709 3.18689C15.5857 3.31948 15.1767 2.9645 15.2511 2.48384C15.291 2.22435 15.4494 2.05378 15.6964 1.98262C16.9325 1.62586 18.1698 1.27193 19.4086 0.924973C19.7837 0.819899 20.1432 1.07744 20.1885 1.47113C20.3227 2.6266 20.4519 3.78257 20.5847 4.93804C20.59 4.98863 20.6092 5.03762 20.6218 5.08713C20.6214 5.20517 20.6214 5.32337 20.6214 5.44176L20.6219 5.44164Z" fill="#99B2C6"/>
<path fill-rule="evenodd" clip-rule="evenodd" d="M0.414353 16.0581C0.567527 15.699 0.837489 15.5682 1.22636 15.579C1.98744 15.5986 2.74974 15.5838 3.51136 15.5849C3.95047 15.5856 4.20324 15.8444 4.20324 16.2872C4.20341 17.2395 4.20377 18.1913 4.2027 19.1437C4.20253 19.596 3.94872 19.8462 3.4922 19.8473C2.73699 19.8478 1.98159 19.8345 1.22656 19.8526C0.83981 19.8615 0.567354 19.7333 0.414185 19.3736C0.414362 18.2683 0.414353 17.1635 0.414353 16.0581Z" fill="#99B2C6"/>
<path fill-rule="evenodd" clip-rule="evenodd" d="M15.1456 16.1371C15.1456 17.1236 15.1456 18.1106 15.1454 19.0971C15.1452 19.6141 14.9147 19.8465 14.4032 19.847C13.6268 19.847 12.8508 19.8475 12.0747 19.8465C11.607 19.8459 11.3571 19.5966 11.3571 19.1261C11.356 17.1268 11.3555 15.1268 11.3569 13.1279C11.3571 12.6861 11.6176 12.4271 12.0551 12.4271C12.8444 12.4266 13.6337 12.4255 14.423 12.4273C14.9076 12.4278 15.1459 12.6691 15.1461 13.1571C15.1472 14.1502 15.1463 15.1441 15.1463 16.137H15.1456L15.1456 16.1371Z" fill="#99B2C6"/>
<path fill-rule="evenodd" clip-rule="evenodd" d="M5.89 17.2967C5.89 16.6852 5.88876 16.0736 5.89018 15.4623C5.89142 15.0198 6.1447 14.7667 6.58914 14.7657C7.37134 14.7639 8.15373 14.7634 8.93625 14.7657C9.43093 14.7673 9.67924 15.0156 9.67956 15.5049C9.67974 16.7014 9.67974 17.898 9.67885 19.0945C9.67832 19.6069 9.44066 19.8467 8.93409 19.8472C8.1517 19.8472 7.36918 19.8483 6.58698 19.8467C6.13988 19.846 5.89137 19.5973 5.89033 19.1512C5.88891 18.5327 5.89 17.9148 5.89 17.2967Z" fill="#99B2C6"/>
</svg>
