<svg width="21" height="21" viewBox="0 0 21 21" fill="none" xmlns="http://www.w3.org/2000/svg">
<g clip-path="url(#clip0_1_291)">
<path d="M11.2986 0.58008C11.5926 0.58008 11.8556 0.76308 11.9546 1.03708L12.6606 2.99408C12.9136 3.05708 13.1306 3.12008 13.3146 3.18608C13.5156 3.25808 13.7746 3.36708 14.0946 3.51608L15.7386 2.64608C15.8727 2.57499 16.0264 2.54932 16.1764 2.57294C16.3264 2.59656 16.4647 2.66819 16.5706 2.77708L18.0166 4.27208C18.2086 4.47108 18.2626 4.76208 18.1546 5.01608L17.3836 6.82308C17.5116 7.05808 17.6136 7.25908 17.6916 7.42708C17.7756 7.61008 17.8796 7.86208 18.0036 8.18708L19.8006 8.95708C20.0706 9.07208 20.2376 9.34208 20.2196 9.63108L20.0876 11.7061C20.0785 11.8409 20.0301 11.9701 19.9484 12.0776C19.8666 12.1852 19.755 12.2663 19.6276 12.3111L17.9256 12.9161C17.8766 13.1511 17.8256 13.3521 17.7716 13.5221C17.6845 13.7846 17.585 14.0429 17.4736 14.2961L18.3286 16.1861C18.3889 16.3189 18.4051 16.4675 18.3749 16.6102C18.3447 16.7529 18.2696 16.8822 18.1606 16.9791L16.5346 18.4311C16.4275 18.5263 16.2938 18.5865 16.1516 18.6037C16.0093 18.6208 15.8652 18.5941 15.7386 18.5271L14.0626 17.6391C13.8003 17.7779 13.5298 17.9005 13.2526 18.0061L12.5206 18.2801L11.8706 20.0801C11.8224 20.2119 11.7355 20.3261 11.6213 20.4076C11.5071 20.4892 11.3709 20.5343 11.2306 20.5371L9.33055 20.5801C9.18651 20.5839 9.04485 20.5429 8.92504 20.4629C8.80523 20.3828 8.71318 20.2676 8.66155 20.1331L7.89555 18.1061C7.6342 18.0168 7.37543 17.9201 7.11955 17.8161C6.91027 17.7255 6.70415 17.6278 6.50155 17.5231L4.60155 18.3351C4.47636 18.3885 4.33834 18.4044 4.20429 18.3807C4.07025 18.3571 3.94596 18.2951 3.84655 18.2021L2.44055 16.8831C2.33587 16.7853 2.26458 16.6571 2.23677 16.5166C2.20895 16.3761 2.22602 16.2304 2.28555 16.1001L3.10255 14.3201C2.9939 14.1093 2.89316 13.8944 2.80055 13.6761C2.69245 13.4088 2.59241 13.1384 2.50055 12.8651L0.710552 12.3201C0.565053 12.2761 0.438146 12.1853 0.349542 12.0618C0.260937 11.9383 0.215593 11.789 0.220552 11.6371L0.290552 9.71608C0.295534 9.59074 0.334688 9.46915 0.40378 9.36446C0.472871 9.25976 0.56927 9.17595 0.682552 9.12208L2.56055 8.22008C2.64755 7.90108 2.72355 7.65308 2.79055 7.47208C2.88489 7.23033 2.98966 6.99277 3.10455 6.76008L2.29055 5.04008C2.22878 4.90946 2.21002 4.76262 2.23697 4.62067C2.26392 4.47871 2.3352 4.34897 2.44055 4.25008L3.84455 2.92408C3.94297 2.83125 4.06612 2.76884 4.19918 2.74436C4.33224 2.71988 4.46953 2.73437 4.59455 2.78608L6.49255 3.57008C6.70255 3.43008 6.89255 3.31708 7.06455 3.22608C7.26955 3.11708 7.54355 3.00308 7.88855 2.88008L8.54855 1.03908C8.59735 0.904348 8.68654 0.787961 8.80394 0.705811C8.92135 0.623661 9.06126 0.579752 9.20455 0.58008H11.2986ZM10.2446 7.59908C8.57755 7.59908 7.22655 8.93408 7.22655 10.5821C7.22655 12.2301 8.57755 13.5661 10.2446 13.5661C11.9106 13.5661 13.2616 12.2301 13.2616 10.5821C13.2616 8.93408 11.9116 7.59908 10.2446 7.59908Z" fill="#99B2C6"/>
</g>
<defs>
<clipPath id="clip0_1_291">
<rect width="20" height="20" fill="white" transform="translate(0.220551 0.580078)"/>
</clipPath>
</defs>
</svg>
