<svg width="40" height="13" viewBox="0 0 40 13" fill="none" xmlns="http://www.w3.org/2000/svg">
<path d="M12.7662 6.50055C12.7662 6.95792 12.6233 7.40502 12.3554 7.78531C12.0876 8.1656 11.7069 8.46199 11.2615 8.63702C10.8161 8.81205 10.326 8.85784 9.8532 8.76862C9.38038 8.67939 8.94605 8.45914 8.60516 8.13573C8.26427 7.81232 8.03212 7.40028 7.93807 6.9517C7.84402 6.50311 7.89229 6.03815 8.07678 5.61559C8.26127 5.19304 8.57369 4.83188 8.97453 4.57778C9.37538 4.32368 9.84664 4.18805 10.3287 4.18805C10.9752 4.18805 11.5952 4.43169 12.0523 4.86537C12.5094 5.29904 12.7662 5.88724 12.7662 6.50055ZM29.8287 4.18805C29.3466 4.18805 28.8754 4.32368 28.4745 4.57778C28.0737 4.83188 27.7613 5.19304 27.5768 5.61559C27.3923 6.03815 27.344 6.50311 27.4381 6.9517C27.5321 7.40028 27.7643 7.81232 28.1052 8.13573C28.4461 8.45914 28.8804 8.67939 29.3532 8.76862C29.826 8.85784 30.3161 8.81205 30.7615 8.63702C31.2069 8.46199 31.5876 8.1656 31.8554 7.78531C32.1233 7.40502 32.2662 6.95792 32.2662 6.50055C32.2662 5.88724 32.0094 5.29904 31.5523 4.86537C31.0952 4.43169 30.4752 4.18805 29.8287 4.18805ZM20.0787 4.18805C19.5966 4.18805 19.1254 4.32368 18.7245 4.57778C18.3237 4.83188 18.0113 5.19304 17.8268 5.61559C17.6423 6.03815 17.594 6.50311 17.6881 6.9517C17.7821 7.40028 18.0143 7.81232 18.3552 8.13573C18.6961 8.45914 19.1304 8.67939 19.6032 8.76862C20.076 8.85784 20.5661 8.81205 21.0115 8.63702C21.4569 8.46199 21.8376 8.1656 22.1054 7.78531C22.3733 7.40502 22.5162 6.95792 22.5162 6.50055C22.5162 5.88724 22.2594 5.29904 21.8023 4.86537C21.3452 4.43169 20.7252 4.18805 20.0787 4.18805Z" fill="#8F8F8F"/>
</svg>
